<?xml version="1.0" encoding="UTF-8"?>
<svg width="200px" height="199px" viewBox="0 0 200 199" version="1.1" xmlns="http://www.w3.org/2000/svg" xmlns:xlink="http://www.w3.org/1999/xlink">
    <!-- Generator: Sketch 59.1 (86144) - https://sketch.com -->
    <title>Group 13</title>
    <desc>Created with Sketch.</desc>
    <defs>
        <linearGradient x1="84.5329841%" y1="4.50575087%" x2="34.7319932%" y2="69.8682447%" id="linearGradient-1">
            <stop stop-color="#4FAFFF" offset="0%"></stop>
            <stop stop-color="#0085F2" offset="100%"></stop>
        </linearGradient>
    </defs>
    <g id="Page-1" stroke="none" stroke-width="1" fill="none" fill-rule="evenodd">
        <g id="Group-13" transform="translate(3.534884, 3.004223)">
            <circle id="Oval-Copy-2" stroke="#2196F3" stroke-width="6" cx="96.4651163" cy="96.4651163" r="96.4651163"></circle>
            <path d="M104.092317,135.109315 L103.847929,135.347929 C101.769793,137.426064 99.3088805,138.465116 96.4651163,138.465116 C93.6213521,138.465116 91.1604392,137.453408 89.0823038,135.42996 C87.0041684,133.406512 85.9651163,130.918256 85.9651163,127.965116 L106.965116,127.965116 C106.965116,130.80013 106.007526,133.181508 104.092317,135.109315 L104.092317,135.109315 Z M131.738554,113.855741 C132.722934,114.949497 133.215116,116.15261 133.215116,117.465116 C133.215116,118.886998 132.722934,120.117455 131.738554,121.156523 C130.754174,122.19559 129.496374,122.715116 127.965116,122.715116 L64.9651163,122.715116 C63.9807364,122.715116 63.0784016,122.469025 62.258085,121.976835 C61.4377684,121.484645 60.8088685,120.828402 60.3713663,120.008085 C59.9338641,119.187768 59.7151163,118.340121 59.7151163,117.465116 C59.7151163,116.15261 60.2072989,114.949497 61.1916788,113.855741 C61.3010543,113.746366 61.4651152,113.527618 61.6838663,113.199491 C63.3244995,111.558858 64.6096429,110.08231 65.539335,108.769804 C66.4690272,107.457297 67.4807358,104.969041 68.5744913,101.30496 C69.6106807,97.8337256 70.1560361,93.8471803 70.2105717,89.3452161 L70.2151163,88.5901163 C70.2151163,82.2463346 72.1838466,76.7229523 76.1213663,72.0198038 C80.058886,67.3166553 85.0900857,64.3635598 91.2151163,63.1604288 L91.2151163,59.7151163 C91.2151163,58.2932342 91.7346423,57.0627777 92.77371,56.02371 C93.8127777,54.9846423 95.0432342,54.4651163 96.4651163,54.4651163 C97.8869984,54.4651163 99.1174548,54.9846423 100.156523,56.02371 C101.19559,57.0627777 101.715116,58.2932342 101.715116,59.7151163 L101.715116,63.1604288 C105.762012,63.9260576 109.37135,65.5119792 112.543241,67.9182413 C115.715132,70.3245033 118.203389,73.3322857 120.008085,76.9416788 C121.812782,80.5510718 122.715116,84.4338455 122.715116,88.5901163 C122.715116,93.4026403 123.261986,97.6408792 124.355741,101.30496 L124.616667,102.161764 C125.610845,105.359637 126.535581,107.562298 127.390898,108.769804 C128.32059,110.08231 129.605733,111.558858 131.246366,113.199491 L131.420474,113.453956 C131.554402,113.643688 131.660428,113.777616 131.738554,113.855741 Z" id="" fill="url(#linearGradient-1)" fill-rule="nonzero"></path>
        </g>
    </g>
</svg>