<?xml version="1.0" encoding="UTF-8"?>
<svg width="94px" height="78px" viewBox="0 0 94 78" version="1.1" xmlns="http://www.w3.org/2000/svg" xmlns:xlink="http://www.w3.org/1999/xlink">
    <!-- Generator: Sketch 61 (89581) - https://sketch.com -->
    <title>brain-icon</title>
    <desc>Created with Sketch.</desc>
    <g id="Page-1" stroke="none" stroke-width="1" fill="none" fill-rule="evenodd">
        <g id="RY-Brain" transform="translate(-3.000000, -12.000000)">
            <g id="brain-icon" transform="translate(3.000000, 11.823730)">
                <g id="brain">
                    <path d="M49.7420989,0.500158548 C54.2842176,0.500158548 58.321737,3.2017436 60.1029827,7.26883443 C65.7430822,7.97393123 70.1617837,12.5296144 70.5703011,18.3898335 C69.4364133,18.2715904 68.2859034,18.2118754 67.1214463,18.2118754 C66.493554,18.2118754 65.869717,18.2292376 65.250389,18.2635083 C65.1465661,14.7773206 62.2736996,11.9595352 58.4998905,11.9595352 L58.4998905,11.9595352 L58.4404577,11.9595352 L56.555277,12.0040374 C55.6795848,8.58998301 54.313934,5.25014722 49.7568847,5.25014722 C46.1351053,5.25014722 43.1959338,8.17438799 43.1959338,11.7813817 L43.1959338,11.7813817 L43.1961965,28.336726 C41.3745467,30.2145234 39.7720144,32.3060884 38.4298447,34.570176 L38.4311594,11.7813817 C38.4311594,8.17438799 35.4772022,5.25014722 31.8702086,5.25014722 C27.2983734,5.25014722 25.9476534,8.60476874 25.0718163,12.0040374 L25.0718163,12.0040374 L23.1866355,11.9595352 L23.1273476,11.9595352 C19.2827676,11.9595352 16.3734575,14.883776 16.3734575,18.4610532 C16.3734575,19.3813925 16.6256847,20.2275132 16.9967775,21.8453912 C12.914756,23.5079162 9.66406948,25.6750405 9.66406948,30.7071178 C9.66406948,32.1914892 9.6937859,32.7110193 11.564036,36.5258829 C8.61007877,38.2179794 5.19602441,40.1476623 5.19602441,45.1797395 C5.19602441,50.4195418 8.66951161,52.4531597 12.4694446,53.996964 C12.0538495,56.0601533 11.9203431,56.490679 11.9203431,57.4110183 C11.9203431,61.6265463 15.3639689,65.0555314 19.5944276,65.0555314 C20.1733904,65.0555314 20.4702647,64.9813128 22.8897612,64.5805035 C24.2109098,68.4991572 26.0366577,71.7352029 30.7718606,71.7352029 C34.0623406,71.7352029 36.8494595,70.3893514 38.7864989,69.0992021 C39.6371185,70.4717645 40.585632,71.7769781 41.6214096,73.0062477 C39.3331563,74.6805589 35.9543928,76.4952606 30.75693,76.4853151 C26.0811685,76.4761692 21.8656319,73.8726109 19.7577954,69.80552 C12.603096,69.9984593 6.81404728,63.9867549 7.15542373,56.8320555 C3.01411433,54.4422754 0.43125,50.0336632 0.43125,45.1797395 C0.43125,41.0829323 2.34614717,37.2235665 5.52261512,34.6852043 C2.92496506,26.6103105 8.50628873,20.865764 11.6234688,19.0548018 C11.2374452,13.4586924 15.4679039,8.02595085 21.5241105,7.26883443 C23.3053562,3.2017436 27.3280899,0.500158548 31.8702086,0.500158548 C35.5218493,0.500158548 38.7280337,2.26661857 40.8061537,4.9384872 C42.8842738,2.26661857 46.0904582,0.500158548 49.7420989,0.500158548 Z" id="Combined-Shape" fill="#000000" fill-rule="nonzero"></path>
                    <path d="M28.5520418,38.0137939 L28.5520418,42.657464 C28.5520418,45.1055275 29.4822491,47.4576841 31.1469259,49.2413809 L31.3784613,49.4810444 L33.7940418,51.8967939 L33.7956144,52.09335 C33.8369081,54.6402297 34.16387,57.1176664 34.7458547,59.495015 L28.0550595,52.8044463 C25.4567106,50.2060974 23.957711,46.7139032 23.8574213,43.0505843 L23.8520418,42.657464 L23.8520418,38.0137939 L28.5520418,38.0137939 Z" id="Combined-Shape" fill="#000000" fill-rule="nonzero"></path>
                    <circle id="Oval" stroke="#000000" stroke-width="4.1" cx="26.2243652" cy="32.4382324" r="6.25032552"></circle>
                </g>
                <path d="M67.1214463,24.9228015 C81.822919,24.9228015 93.7408174,36.8406999 93.7408174,51.5421726 C93.7408174,66.2436453 81.822919,78.1615437 67.1214463,78.1615437 C52.4199736,78.1615437 40.5020752,66.2436453 40.5020752,51.5421726 C40.5020752,36.8406999 52.4199736,24.9228015 67.1214463,24.9228015 Z M67.1214463,29.6358643 C55.0229263,29.6358643 45.215138,39.4436526 45.215138,51.5421726 C45.215138,63.6406926 55.0229263,73.4484809 67.1214463,73.4484809 C79.2199663,73.4484809 89.0277546,63.6406926 89.0277546,51.5421726 C89.0277546,39.4436526 79.2199663,29.6358643 67.1214463,29.6358643 Z" id="Combined-Shape" fill="#000000"></path>
                <path d="M67.1426367,36.9540228 C72.363441,36.9540228 76.5957391,41.1863209 76.5957391,46.4071253 C76.5957391,51.6279296 72.363441,55.8602277 67.1426367,55.8602277 C61.9218324,55.8602277 57.6895342,51.6279296 57.6895342,46.4071253 C57.6895342,41.1863209 61.9218324,36.9540228 67.1426367,36.9540228 Z M67.1426367,41.2609863 C64.3005026,41.2609863 61.9964977,43.5649912 61.9964977,46.4071253 C61.9964977,49.2492593 64.3005026,51.5532642 67.1426367,51.5532642 C69.9847707,51.5532642 72.2887756,49.2492593 72.2887756,46.4071253 C72.2887756,43.5649912 69.9847707,41.2609863 67.1426367,41.2609863 Z" id="Combined-Shape" fill="#000000"></path>
                <path d="M52.2568359,69.4285889 C52.737915,64.6220703 54.7733154,59.8155518 60.1612549,59.8155518 C63.3702393,59.8155518 63.3481445,61.18396 66.9107666,61.18396 C70.4733887,61.18396 70.2736816,59.8155518 73.7193604,59.8155518 C77.1650391,59.8155518 81.3822021,62.3133545 82.0927734,69.4285889" id="Path-2" stroke="#000000" stroke-width="4.8"></path>
            </g>
        </g>
    </g>
</svg>