<?xml version="1.0" encoding="UTF-8"?>
<svg width="89px" height="77px" viewBox="0 0 89 77" version="1.1" xmlns="http://www.w3.org/2000/svg" xmlns:xlink="http://www.w3.org/1999/xlink">
    <!-- Generator: Sketch 57.1 (83088) - https://sketch.com -->
    <title>Group</title>
    <desc>Created with Sketch.</desc>
    <g id="Page-1" stroke="none" stroke-width="1" fill="none" fill-rule="evenodd">
        <g id="Complete-Active" transform="translate(-6.000000, -13.000000)" fill="#262626" stroke="#262626" stroke-width="1.5">
            <g id="Group" transform="translate(8.000000, 15.000000)">
                <path d="M26.7562498,36.7308363 L55.1829199,8.30316991 C56.8248131,6.6612767 59.4846869,6.6612767 61.1265801,8.30316991 C62.7674405,9.94403037 62.7674405,12.6047525 61.1265717,14.2468385 L29.6857723,45.6866378 C28.0138351,47.3597874 25.3026649,47.3597874 23.6309199,45.6868301 L2.50091991,24.5568301 C0.833026695,22.8889369 0.833026695,20.1840631 2.50111273,18.5159772 C4.16996178,16.8483409 6.87353822,16.8483409 8.54259456,18.5161844 L26.7562498,36.7308363 Z" id="Fill-10"></path>
                <path d="M26.7572751,63.9101135 L78.1829199,13.4806699 C79.8248131,11.8387767 82.4846869,11.8387767 84.1265801,13.4806699 C85.7674405,15.1215304 85.7674405,17.7822525 84.1216404,19.4292242 L29.6857723,72.8648878 C28.0138351,74.5380374 25.3026649,74.5380374 23.6309228,72.865083 L0.500919914,49.7353301 C-1.1669733,48.0674369 -1.1669733,45.3625631 0.501112726,43.6944772 C2.16996178,42.0268409 4.87353822,42.0268409 6.54258987,43.6946797 L26.7572751,63.9101135 Z" id="Fill-10"></path>
                <circle id="Oval" cx="66.02625" cy="3.5" r="4.25"></circle>
            </g>
        </g>
    </g>
</svg>