<?xml version="1.0" encoding="UTF-8"?>
<svg width="85px" height="74px" viewBox="0 0 85 74" version="1.1" xmlns="http://www.w3.org/2000/svg" xmlns:xlink="http://www.w3.org/1999/xlink">
    <!-- Generator: Sketch 57.1 (83088) - https://sketch.com -->
    <title>Group</title>
    <desc>Created with Sketch.</desc>
    <g id="Page-1" stroke="none" stroke-width="1" fill="none" fill-rule="evenodd">
        <g id="In-Progress-Copy-2" transform="translate(-8.000000, -15.000000)" fill="#262626">
            <g id="Group" transform="translate(8.000000, 15.000000)">
                <path d="M27.17925,64.546 C26.94525,64.78 26.56725,64.78 26.33325,64.546 L6.01225,44.225 C4.63725,42.849 2.40625,42.849 1.03125,44.225 C-0.34375,45.6 -0.34375,47.829 1.03125,49.205 L24.16125,72.335 C25.54025,73.714 27.77625,73.714 29.15525,72.335 L83.59625,18.894 C84.94425,17.546 84.94425,15.36 83.59625,14.011 C82.24825,12.663 80.06225,12.663 78.71325,14.011" id="Fill-1"></path>
                <path d="M27.17925,37.3685 C26.94525,37.6015 26.56725,37.6015 26.33325,37.3685 L8.01225,19.0465 C6.63625,17.6715 4.40725,17.6715 3.03125,19.0465 C1.65625,20.4215 1.65625,22.6515 3.03125,24.0265 L24.16125,45.1565 C25.54025,46.5365 27.77625,46.5365 29.15525,45.1565 L60.59625,13.7165 C61.94425,12.3675 61.94425,10.1815 60.59625,8.8335 C59.24725,7.4845 57.06225,7.4845 55.71325,8.8335 L27.17925,37.3685 Z" id="Fill-10"></path>
                <circle id="Oval" cx="66.02625" cy="3.5" r="3.5"></circle>
            </g>
        </g>
    </g>
</svg>