<?xml version="1.0" encoding="UTF-8"?>
<svg width="92px" height="82px" viewBox="0 0 92 82" version="1.1" xmlns="http://www.w3.org/2000/svg" xmlns:xlink="http://www.w3.org/1999/xlink">
    <!-- Generator: Sketch 57.1 (83088) - https://sketch.com -->
    <title></title>
    <desc>Created with Sketch.</desc>
    <g id="Page-1" stroke="none" stroke-width="1" fill="none" fill-rule="evenodd">
        <g id="Analytics-Active" transform="translate(-4.000000, -10.000000)" fill="#231F20" fill-rule="nonzero">
            <path d="M16.6562198,65.8125362 C18.0547074,65.8125362 19.1874638,66.9452926 19.1874638,68.3437802 L19.1874638,88.5937319 C19.1874638,89.9922195 18.0547074,91.1249759 16.6562198,91.1249759 L6.53124397,91.1249759 C5.13275639,91.1249759 4,89.9922195 4,88.5937319 L4,68.3437802 C4,66.9452926 5.13275639,65.8125362 6.53124397,65.8125362 L16.6562198,65.8125362 Z M92.5935388,40.5000966 C93.9920263,40.5000966 95.1247827,41.632853 95.1247827,43.0313405 L95.1247827,88.5937319 C95.1247827,89.9922195 93.9920263,91.1249759 92.5935388,91.1249759 L82.4685629,91.1249759 C81.0700753,91.1249759 79.937319,89.9922195 79.937319,88.5937319 L79.937319,43.0313405 C79.937319,41.632853 81.0700753,40.5000966 82.4685629,40.5000966 L92.5935388,40.5000966 Z M83.5395214,24.1545392 L69.364617,35.4929178 C69.6351375,36.2729624 69.8123431,37.0971925 69.8123431,37.9688526 C69.8123431,42.1627704 66.412529,45.5625845 62.2186112,45.5625845 C58.0246934,45.5625845 54.6248793,42.1627704 54.6248793,37.9688526 C54.6248793,37.0971925 54.8020849,36.2729624 55.0726054,35.4929178 L40.897701,24.1529943 C39.7348181,24.8760303 38.3758813,25.3126328 36.9061715,25.3126328 C35.7354094,25.3126328 34.6406588,25.0263538 33.6503466,24.5532905 L18.4281215,39.7755156 C18.9011848,40.7658277 19.1874638,41.8605784 19.1874638,43.0313405 C19.1874638,47.2252583 15.7876497,50.6250724 11.5937319,50.6250724 C7.39981413,50.6250724 4,47.2252583 4,43.0313405 C4,38.8374228 7.39981413,35.4376086 11.5937319,35.4376086 C12.764494,35.4376086 13.8592447,35.7238876 14.8495568,36.1969509 L30.0717819,20.9747258 C29.5987186,19.9844137 29.3124397,18.889663 29.3124397,17.7189009 C29.3124397,13.5249831 32.7122538,10.125169 36.9061715,10.125169 C41.1000893,10.125169 44.4999034,13.5249831 44.4999034,17.7189009 C44.4999034,18.5905609 44.3226978,19.4147911 44.0521773,20.1931362 L58.2270817,31.5332143 C59.3899646,30.8101783 60.7489015,30.3735758 62.2186112,30.3735758 C63.6883209,30.3735758 65.0472578,30.8101783 66.2101407,31.5332143 L80.3850451,20.1931362 C80.1145246,19.4132461 79.937319,18.5905609 79.937319,17.7189009 C79.937319,13.5249831 83.3371331,10.125169 87.5310508,10.125169 C91.7249686,10.125169 95.1247827,13.5249831 95.1247827,17.7189009 C95.1247827,21.9128186 91.7249686,25.3126328 87.5310508,25.3126328 C86.0613411,25.3126328 84.7024043,24.8760303 83.5395214,24.1545392 Z M87.5310508,15.1876569 C86.1356532,15.1876569 84.9998069,16.3235032 84.9998069,17.7189009 C84.9998069,19.1142985 86.1356532,20.2501448 87.5310508,20.2501448 C88.9264485,20.2501448 90.0622948,19.1142985 90.0622948,17.7189009 C90.0622948,16.3235032 88.9264485,15.1876569 87.5310508,15.1876569 Z M11.5937319,45.5625845 C12.9891296,45.5625845 14.1249759,44.4267382 14.1249759,43.0313405 C14.1249759,41.6359429 12.9891296,40.5000966 11.5937319,40.5000966 C10.1983342,40.5000966 9.06248793,41.6359429 9.06248793,43.0313405 C9.06248793,44.4267382 10.1983342,45.5625845 11.5937319,45.5625845 Z M36.9061715,20.2501448 C38.3015692,20.2501448 39.4374155,19.1142985 39.4374155,17.7189009 C39.4374155,16.3235032 38.3015692,15.1876569 36.9061715,15.1876569 C35.5107739,15.1876569 34.3749276,16.3235032 34.3749276,17.7189009 C34.3749276,19.1142985 35.5107739,20.2501448 36.9061715,20.2501448 Z M62.2186112,40.5000966 C63.6140089,40.5000966 64.7498552,39.3642503 64.7498552,37.9688526 C64.7498552,36.5734549 63.6140089,35.4376086 62.2186112,35.4376086 C60.8232135,35.4376086 59.6873672,36.5734549 59.6873672,37.9688526 C59.6873672,39.3642503 60.8232135,40.5000966 62.2186112,40.5000966 Z M41.9686595,40.5000966 C43.367147,40.5000966 44.4999034,41.632853 44.4999034,43.0313405 L44.4999034,88.5937319 C44.4999034,89.9922195 43.367147,91.1249759 41.9686595,91.1249759 L31.8436836,91.1249759 C30.445196,91.1249759 29.3124397,89.9922195 29.3124397,88.5937319 L29.3124397,43.0313405 C29.3124397,41.632853 30.445196,40.5000966 31.8436836,40.5000966 L41.9686595,40.5000966 Z M67.2810991,60.7500483 C68.6795867,60.7500483 69.8123431,61.8828047 69.8123431,63.2812922 L69.8123431,88.5937319 C69.8123431,89.9922195 68.6795867,91.1249759 67.2810991,91.1249759 L57.1561233,91.1249759 C55.7576357,91.1249759 54.6248793,89.9922195 54.6248793,88.5937319 L54.6248793,63.2812922 C54.6248793,61.8828047 55.7576357,60.7500483 57.1561233,60.7500483 L67.2810991,60.7500483 Z" id=""></path>
        </g>
    </g>
</svg>