<?xml version="1.0" encoding="UTF-8"?>
<svg width="98px" height="98px" viewBox="0 0 98 98" version="1.1" xmlns="http://www.w3.org/2000/svg" xmlns:xlink="http://www.w3.org/1999/xlink">
    <!-- Generator: Sketch 57.1 (83088) - https://sketch.com -->
    <title>In Progress</title>
    <desc>Created with Sketch.</desc>
    <g id="Page-1" stroke="none" stroke-width="1" fill="none" fill-rule="evenodd">
        <g id="In-Progress" transform="translate(-1.000000, -1.000000)" fill="#262626">
            <g id="In-Progress-Active" transform="translate(1.000000, 1.000000)">
                <g id="Group-12">
                    <path d="M88.2554,29.1709 C87.2084,29.1709 86.1924,28.6229 85.6414,27.6469 C83.8424,24.4659 81.6344,21.5209 79.0784,18.8919 C77.9244,17.7039 77.9504,15.8049 79.1394,14.6499 C80.3274,13.4959 82.2254,13.5209 83.3814,14.7099 C86.2944,17.7059 88.8124,21.0659 90.8634,24.6939 C91.6794,26.1359 91.1714,27.9659 89.7294,28.7819 C89.2624,29.0459 88.7554,29.1709 88.2554,29.1709" id="Fill-1"></path>
                    <path d="M92.647,63.1255 C92.396,63.1255 92.14,63.0935 91.886,63.0265 C90.283,62.6075 89.324,60.9685 89.743,59.3655 C90.661,55.8575 91.126,52.2225 91.126,48.5625 C91.126,44.9005 90.66,41.2645 89.741,37.7525 C89.322,36.1505 90.281,34.5105 91.883,34.0915 C93.492,33.6745 95.126,34.6315 95.545,36.2345 C96.594,40.2405 97.126,44.3885 97.126,48.5625 C97.126,52.7345 96.594,56.8805 95.547,60.8835 C95.195,62.2315 93.978,63.1255 92.647,63.1255" id="Fill-3"></path>
                    <path d="M48.563,97.125 C21.785,97.125 0,75.34 0,48.562 C0,21.785 21.785,0 48.563,0 C50.22,0 51.563,1.343 51.563,3 C51.563,4.657 50.22,6 48.563,6 C25.094,6 6,25.093 6,48.562 C6,72.032 25.094,91.125 48.563,91.125 C63.888,91.125 78.097,82.828 85.644,69.471 C86.46,68.029 88.292,67.521 89.732,68.335 C91.174,69.15 91.683,70.98 90.869,72.423 C82.258,87.66 66.047,97.125 48.563,97.125" id="Fill-6"></path>
                    <path d="M68.9351,9.3955 C68.9351,7.6575 70.3441,6.2495 72.0811,6.2495 C73.8191,6.2495 75.2281,7.6575 75.2281,9.3955 C75.2281,11.1335 73.8191,12.5415 72.0811,12.5415 C70.3441,12.5415 68.9351,11.1335 68.9351,9.3955" id="Fill-8"></path>
                    <path d="M39.653,63.3685 C39.419,63.6015 39.041,63.6015 38.807,63.3685 L26.486,51.0465 C25.11,49.6715 22.881,49.6715 21.505,51.0465 C20.13,52.4215 20.13,54.6515 21.505,56.0265 L36.635,71.1565 C38.014,72.5365 40.25,72.5365 41.629,71.1565 L75.2281,37.7607422 C76.5761,36.4117422 76.5761,34.2257422 75.2281,32.8777422 C73.8791,31.5287422 71.6941,31.5287422 70.3451,32.8777422 L39.653,63.3685 Z" id="Fill-10"></path>
                </g>
            </g>
        </g>
    </g>
</svg>