<?xml version="1.0" encoding="UTF-8"?>
<svg width="99px" height="98px" viewBox="0 0 99 98" version="1.1" xmlns="http://www.w3.org/2000/svg" xmlns:xlink="http://www.w3.org/1999/xlink">
    <!-- Generator: Sketch 57.1 (83088) - https://sketch.com -->
    <title>inprogress</title>
    <desc>Created with Sketch.</desc>
    <g id="Page-1" stroke="none" stroke-width="1" fill="none" fill-rule="evenodd">
        <g id="In-Progress-Copy" transform="translate(0.000000, -1.000000)" fill="#262626" stroke="#262626">
            <g id="inprogress" transform="translate(1.000000, 1.000000)">
                <g id="Group-12">
                    <g id="Group" transform="translate(0.550000, 0.750000)" stroke-width="1.75">
                        <path d="M86.8082897,28.7864471 C85.7801204,28.7864471 84.7823936,28.2483031 84.2413035,27.2898568 C82.4746593,24.1660684 80.306371,21.2740354 77.7963417,18.6923191 C76.6630969,17.5256857 76.6886293,15.66084 77.8562446,14.5266132 C79.022878,13.3933683 80.8867417,13.4179187 82.0219505,14.5855341 C84.882559,17.5276498 87.3552718,20.8272188 89.3693837,24.3899677 C90.1707076,25.8060328 89.6718442,27.6031195 88.2557792,28.4044434 C87.7971784,28.6636952 87.299297,28.7864471 86.8082897,28.7864471" id="Fill-1"></path>
                        <path d="M91.268754,62.1303597 C91.0099161,62.1303597 90.7459219,62.0989353 90.4839903,62.0331403 C88.8309334,61.6216762 87.8419868,60.0121543 88.2740709,58.4379849 C89.2207372,54.9930777 89.7002578,51.4234546 89.7002578,47.8292812 C89.7002578,44.2331438 89.219706,40.6625387 88.2720084,37.2137035 C87.8399243,35.6405161 88.828871,34.0300122 90.4808966,33.6185481 C92.1401408,33.209048 93.8251657,34.148836 94.2572498,35.7230053 C95.3390069,39.6569558 95.8876197,43.7303523 95.8876197,47.8292812 C95.8876197,51.9262461 95.3390069,55.9976786 94.2593123,59.928683 C93.8963204,61.2524387 92.6413171,62.1303597 91.268754,62.1303597" id="Fill-3"></path>
                        <path d="M47.8297737,95.5183648 C21.5333869,95.5183648 0.140199064,74.125177 0.140199064,47.8287902 C0.140199064,21.5333855 21.5333869,0.140197621 47.8297737,0.140197621 C49.4569719,0.140197621 50.7758175,1.45904322 50.7758175,3.0862414 C50.7758175,4.71343957 49.4569719,6.03228517 47.8297737,6.03228517 C24.7828732,6.03228517 6.03228661,24.7818898 6.03228661,47.8287902 C6.03228661,70.8766727 24.7828732,89.6262773 47.8297737,89.6262773 C62.8791473,89.6262773 76.8325926,81.4785022 84.2438568,68.3617333 C85.0451807,66.9456683 86.8442314,66.4468049 88.2583324,67.2461647 C89.6743974,68.0465066 90.1742429,69.8435933 89.374883,71.2606404 C80.9187553,86.2235967 64.9993168,95.5183648 47.8297737,95.5183648" id="Fill-6"></path>
                        <path d="M67.8354731,10.1363649 C67.8354731,8.00443272 69.5633032,6.27729781 71.6933536,6.27729781 C73.8246302,6.27729781 75.5524603,8.00443272 75.5524603,10.1363649 C75.5524603,12.268297 73.8246302,13.9954319 71.6933536,13.9954319 C69.5633032,13.9954319 67.8354731,12.268297 67.8354731,10.1363649" id="Fill-8"></path>
                    </g>
                    <path d="M39.2303534,62.7311871 L69.8147699,32.3474121 C71.4566631,30.7055189 74.1165369,30.7055189 75.7584301,32.3474121 C77.3992905,33.9882726 77.3992905,36.6489946 75.756818,38.2926795 L42.1595223,71.6866378 C40.4875851,73.3597874 37.7764149,73.3597874 36.1046699,71.6868301 L20.9746699,56.5568301 C19.3067767,54.8889369 19.3067767,52.1840631 20.9748627,50.5159772 C22.6437118,48.8483409 25.3472882,48.8483409 27.0163516,50.5161914 L39.2303534,62.7311871 Z" id="Fill-10" stroke-width="1.5"></path>
                </g>
            </g>
        </g>
    </g>
</svg>