<?xml version="1.0" encoding="UTF-8"?>
<svg width="86px" height="82px" viewBox="0 0 86 82" version="1.1" xmlns="http://www.w3.org/2000/svg" xmlns:xlink="http://www.w3.org/1999/xlink">
    <!-- Generator: Sketch 61 (89581) - https://sketch.com -->
    <title>map-icon</title>
    <desc>Created with Sketch.</desc>
    <g id="Page-1" stroke="none" stroke-width="1" fill="none" fill-rule="evenodd">
        <g id="RY-Map-Marker" transform="translate(-7.000000, -6.000000)" fill-rule="nonzero">
            <g id="map-icon" transform="translate(7.250102, 6.364258)">
                <path d="M83.127701,29.520544 C84.3820239,29.520544 85.4997962,30.5343813 85.4997962,31.8984375 L85.4997962,31.8984375 L85.4997962,68.8834724 C85.4997962,70.6589198 84.1618324,72.6345544 82.5132234,73.2935342 L82.5132234,73.2935342 L59.9759999,81.132581 C59.1853981,81.3898818 57.8688882,81.5986215 57.0374083,81.5986215 C56.1857791,81.5986215 54.838973,81.3798796 54.0311212,81.1102575 L54.0311212,81.1102575 L28.4999321,72.0986441 L3.25822435,81.4264112 C2.96279964,81.5436823 2.66447576,81.5986215 2.37354476,81.5986215 C1.1177723,81.5986215 0,80.5847842 0,79.220728 L0,79.220728 L0,42.2356931 C0,40.4605356 1.3383986,38.484901 2.98657277,37.8256313 L2.98657277,37.8256313 L20.2002245,31.8407223 C20.4320996,32.3753558 20.6551143,32.8568268 20.8692685,33.2851353 C21.170439,33.8874762 21.6731317,34.761434 22.3773466,35.9070087 L4.54661239,42.1117041 L4.73665253,75.8169657 L26.1249377,67.9126876 L26.1249421,41.6905148 C26.64866,42.4597847 27.1425813,43.1657366 27.6067058,43.8083706 C28.3560324,44.8458998 29.445156,46.3882701 30.8740765,48.4354817 L30.8749264,67.8993515 L54.6248698,76.2831511 L54.6250285,48.4364719 C56.054289,46.3887674 57.1436429,44.846067 57.8930904,43.8083706 C59.0053022,42.2683849 60.2886236,40.3647916 61.7430545,38.0975904 C61.9872082,37.716998 62.217499,37.3550903 62.4339269,37.0118672 L82.2430214,29.6927543 C82.5369965,29.5754831 82.83677,29.520544 83.127701,29.520544 Z M80.7631436,35.0996435 L59.3748584,43.0053711 L59.3748584,76.3127225 L80.9531838,68.8047601 L80.7631436,35.0996435 Z" id="Combined-Shape" fill="#242424"></path>
                <path d="M42.7498981,0.557664699 C48.1746978,0.557664699 52.7857776,2.45634461 56.5831374,6.25370442 C60.3804972,10.0510642 62.2791771,14.662144 62.2791771,20.0869438 C62.2791771,21.2397137 62.2283196,22.2399112 62.1266046,23.0875361 C62.0248896,23.9351611 61.7536497,24.9353585 61.3128847,26.0881285 C60.8721197,27.2408984 60.4652597,28.1902384 60.0923047,28.9361483 C59.7193498,29.6820583 58.9564873,30.9534957 57.8037173,32.7504606 C56.6509474,34.5474256 55.6337975,36.056198 54.7522675,37.2767779 C53.8707375,38.4973579 52.3958701,40.5994678 50.3276652,43.5831076 C48.2594603,46.5667475 46.4116379,49.2452424 44.784198,51.6185922 C44.309528,52.2966922 43.631428,52.6357422 42.7498981,52.6357422 C41.8683681,52.6357422 41.1902682,52.2966922 40.7155982,51.6185922 C39.0881583,49.2452424 37.2403358,46.5667475 35.1721309,43.5831076 C33.103926,40.5994678 31.6290586,38.4973579 30.7475287,37.2767779 C29.8659987,36.056198 28.8488487,34.5474256 27.6960788,32.7504606 C26.5433089,30.9534957 25.7804464,29.6820583 25.4074914,28.9361483 C25.0345364,28.1902384 24.6276765,27.2408984 24.1869115,26.0881285 C23.7461465,24.9353585 23.4749065,23.9351611 23.3731915,23.0875361 C23.2714765,22.2399112 23.220619,21.2397137 23.220619,20.0869438 C23.220619,14.662144 25.1192989,10.0510642 28.9166587,6.25370442 C32.7140186,2.45634461 37.3250983,0.557664699 42.7498981,0.557664699 Z M42.7498981,13.9174805 C41.0532957,13.9174805 39.6009012,14.5215737 38.3927146,15.7297603 C37.1845281,16.9379469 36.5804348,18.3903414 36.5804348,20.0869438 C36.5804348,21.7835462 37.171675,23.2487937 38.3541555,24.4826864 C39.5880481,25.6651668 41.0532957,26.256407 42.7498981,26.256407 C44.4465005,26.256407 45.898895,25.6523138 47.1070815,24.4441272 C48.3152681,23.2359406 48.9193614,21.7835462 48.9193614,20.0869438 C48.9193614,18.3903414 48.3152681,16.9379469 47.1070815,15.7297603 C45.898895,14.5215737 44.4465005,13.9174805 42.7498981,13.9174805 Z" id="Combined-Shape" fill="#2196F3"></path>
            </g>
        </g>
    </g>
</svg>