<?xml version="1.0" encoding="UTF-8"?>
<svg width="100px" height="89px" viewBox="0 0 100 89" version="1.1" xmlns="http://www.w3.org/2000/svg" xmlns:xlink="http://www.w3.org/1999/xlink">
    <!-- Generator: Sketch 57.1 (83088) - https://sketch.com -->
    <title>marketplace</title>
    <desc>Created with Sketch.</desc>
    <g id="Page-1" stroke="none" stroke-width="1" fill="none" fill-rule="evenodd">
        <g id="Marketplace-Active" transform="translate(0.000000, -7.000000)" fill="#262626">
            <g id="marketplace" transform="translate(0.000000, 7.000000)">
                <g id="store---inactive" fill-rule="nonzero">
                    <path d="M82.7922078,0 C84.5779221,0 86.25,0.925324675 87.1915584,2.43506494 L87.1915584,2.43506494 L97.7272727,19.2532468 C102.532468,26.9155844 99.3506494,37.2077922 91.5584416,40.487013 L91.5584416,40.487013 C90.4341124,40.9477708 88.3538973,41.6443248 86.3166504,41.5651855 L86.3465379,41.566 L86.3474026,41.5584416 L85.9415584,41.5584416 C81.1363636,41.5584416 76.8831169,39.4480519 73.9448052,36.1850649 C71.0227273,39.4480519 66.7694805,41.5584416 61.9642857,41.5584416 C57.1753247,41.5584416 52.9058442,39.4480519 49.9837662,36.1850649 C47.0616883,39.4480519 42.8084416,41.5584416 38.0032468,41.5584416 C33.2142857,41.5584416 28.9448052,39.4480519 26.0227273,36.1850649 C23.1006494,39.4480519 18.8474026,41.5584416 14.0422078,41.5584416 L14.0422078,41.5584416 L13.6363636,41.5584416 C10.8909771,41.5240563 8.37668777,40.7364165 6.09326172,39.2021484 L6.22006338,39.2853386 C0.0869331903,35.1506706 -2.04596318,26.1398072 2.27272727,19.2532468 L2.27272727,19.2532468 L12.8084416,2.43506494 C13.75,0.925324675 15.4220779,0 17.2077922,0 L17.2077922,0 Z" id="Combined-Shape"></path>
                </g>
                <path d="M91.117,47 L91.1174416,82.4025974 C91.1174416,85.4751346 88.9078724,87.9914167 86.1318727,88.1123343 L85.9226364,88.1168831 L59.5585379,88.116 L59.5585379,82.946 L59.559,82.946 L59.559,66.97 L59.5585379,66.97 L59.5585379,61.449 L59.559,61.449 L59.559,57 C59.559,56.4871642 59.1729598,56.0644928 58.6756211,56.0067277 L58.559,56 L40.559,56 C40.0461642,56 39.6234928,56.3860402 39.5657277,56.8833789 L39.559,57 L39.559,88 L39.558,88 L39.5585379,88.116 L13.1953636,88.1168831 C10.3920694,88.1168831 8.1141272,85.675541 8.00467571,82.631966 L8.00055844,82.4025974 L8,47 L13.195,47 L13.1953636,61.4492188 L34.559,61.449 L34.559,55 C34.559,52.790861 36.349861,51 38.559,51 L60.559,51 C62.768139,51 64.559,52.790861 64.559,55 L64.559,61.449 L85.9064026,61.4492188 L85.906,47 L91.117,47 Z M34.559,66.97 L13.1953636,66.9707792 L13.1953636,82.5343022 C13.1953636,82.7694653 13.3027053,82.9038443 13.3640434,82.9531456 L13.3901688,82.9707792 L34.559,82.959 L34.559,66.97 Z M85.9226364,66.9707792 L64.559,66.97 L64.559,82.944 L85.8901688,82.9333669 C85.8049416,82.922455 85.89372,82.8160637 85.9172462,82.6225475 L85.9226364,82.5343022 L85.9226364,66.9707792 Z" id="Combined-Shape" fill-rule="nonzero"></path>
                <path d="M91.1168729,45.629366 L91.1165417,46.999 L85.9055417,46.999 L85.904983,46.3169532 L85.9590947,46.3171418 L85.9590947,46.3171418 C87.8412517,46.3171418 89.5575534,46.0715329 91.1168729,45.629366 Z M13.1945826,46.3170973 L13.1945417,46.999 L7.99954167,46.999 L7.99898297,45.3569532 C9.57418923,45.9642485 11.3057983,46.3125771 13.1945826,46.3170973 Z" id="Combined-Shape" fill-rule="nonzero"></path>
                <rect id="Rectangle" x="37" y="54" width="25" height="34.1168831"></rect>
            </g>
        </g>
    </g>
</svg>