<?xml version="1.0" encoding="UTF-8"?>
<svg width="80px" height="30px" viewBox="0 0 80 30" version="1.1" xmlns="http://www.w3.org/2000/svg" xmlns:xlink="http://www.w3.org/1999/xlink">
    <!-- Generator: Sketch 61 (89581) - https://sketch.com -->
    <title>mustache-icon</title>
    <desc>Created with Sketch.</desc>
    <g id="Page-1" stroke="none" stroke-width="1" fill="none" fill-rule="evenodd" stroke-linecap="round" stroke-linejoin="round">
        <g id="RY-Post-Suggestion-Copy" transform="translate(-10.000000, -36.000000)" stroke="#000000" stroke-width="4.2">
            <path d="M49.6127318,54.1680238 C43.7935569,60.0000459 37.5175357,62.916057 30.784668,62.916057 C20.6546224,62.916057 14.4864095,56.7121858 12.2800293,44.3044434 C14.8153483,47.6284993 17.5269368,49.2894694 20.4147949,49.2873535 C25.8811035,49.2873535 29.2087402,38.3244629 39.4699707,38.3244629 C45.375,38.3244629 47.2043457,40.9719238 50,43.9101562 L50,43.9101562 C52.7956543,40.9719238 54.625,38.3244629 60.5300293,38.3244629 C70.7912598,38.3244629 74.1188965,49.2873535 79.5852051,49.2873535 C82.4730632,49.2894694 85.1846517,47.6284993 87.7199707,44.3044434 C85.5135905,56.7121858 79.3453776,62.916057 69.215332,62.916057 C62.3328451,62.916057 55.9277344,59.8690054 50,53.7749023 Z" id="mustache-icon"></path>
        </g>
    </g>
</svg>