<?xml version="1.0" encoding="UTF-8"?>
<svg width="74px" height="94px" viewBox="0 0 74 94" version="1.1" xmlns="http://www.w3.org/2000/svg" xmlns:xlink="http://www.w3.org/1999/xlink">
    <!-- Generator: Sketch 61 (89581) - https://sketch.com -->
    <title>post-icon</title>
    <desc>Created with Sketch.</desc>
    <g id="Page-1" stroke="none" stroke-width="1" fill="none" fill-rule="evenodd">
        <g id="RY-Post" transform="translate(-13.000000, -3.000000)">
            <g id="post-icon" transform="translate(13.297392, 3.879077)">
                <rect id="Rectangle" stroke="#000000" stroke-width="4.7" x="2.85" y="2.35" width="67.7191327" height="87.541845" rx="7"></rect>
                <path d="M21.8366217,13.1115277 C26.4274464,13.1115277 30.1491019,16.8331833 30.1491019,21.4240079 C30.1491019,26.0148325 26.4274464,29.7364881 21.8366217,29.7364881 C17.2457971,29.7364881 13.5241416,26.0148325 13.5241416,21.4240079 C13.5241416,16.8331833 17.2457971,13.1115277 21.8366217,13.1115277 Z M21.8366217,17.2093014 C19.5124965,17.2093014 17.6219152,19.0998827 17.6219152,21.4240079 C17.6219152,23.7481332 19.5124965,25.6387144 21.8366217,25.6387144 C24.160747,25.6387144 26.0513282,23.7481332 26.0513282,21.4240079 C26.0513282,19.0998827 24.160747,17.2093014 21.8366217,17.2093014 Z" id="Combined-Shape" fill="#000000"></path>
                <path d="M44.9484528,34.657483 C46.1746871,33.4313764 48.1626227,33.4313764 49.388857,34.657483 L49.388857,34.657483 L60.9015082,46.1701342 C61.4902233,46.7589771 61.8211201,47.5576008 61.8211201,48.3903363 L61.8211201,48.3903363 L61.8211201,60.4262898 C61.8211201,61.2932648 61.1181881,61.9961968 60.2512131,61.9961968 L60.2512131,61.9961968 L13.1540036,61.9961968 C12.2870286,61.9961968 11.5840966,61.2932648 11.5840966,60.4262898 L11.5840966,60.4262898 L11.5840966,56.7631735 C11.5840966,56.0452937 11.9961206,55.0506871 12.5038362,54.5430992 L12.5038362,54.5430992 L24.0164874,43.030448 C25.242594,41.8042137 27.2305296,41.8042137 28.4567639,43.030448 L28.4567639,43.030448 L32.5161897,47.0897461 Z M47.1686549,38.357905 L32.5161897,53.0103702 L26.2365618,46.7307423 L15.7705152,57.1967888 L15.7705152,57.8097782 L57.6347015,57.8097782 L57.6347015,48.8239516 L47.1686549,38.357905 Z" id="Combined-Shape" fill="#000000"></path>
                <line x1="2.4318564" y1="70.480351" x2="71.5038779" y2="70.480351" id="Line-2" stroke="#000000" stroke-width="4.6"></line>
                <line x1="13.988497" y1="80.1710934" x2="40.2339804" y2="80.1710934" id="Line" stroke="#000000" stroke-width="4.2" stroke-linecap="round"></line>
            </g>
        </g>
    </g>
</svg>