<?xml version="1.0" encoding="UTF-8"?>
<svg width="100px" height="103px" viewBox="0 0 100 103" version="1.1" xmlns="http://www.w3.org/2000/svg" xmlns:xlink="http://www.w3.org/1999/xlink">
    <!-- Generator: Sketch 61 (89581) - https://sketch.com -->
    <title>post-req-icon</title>
    <desc>Created with Sketch.</desc>
    <g id="Page-1" stroke="none" stroke-width="1" fill="none" fill-rule="evenodd">
        <g id="RY-Post-Req">
            <g id="post-req-icon">
                <g id="post-icon-copy" transform="translate(0.000000, 16.000000)">
                    <path d="M38.999,0 L38.999,4.7 L7.5,4.7 C6.28267236,4.7 5.28622964,5.64572074 5.20530616,6.84252788 L5.2,7 L5.2,79.241845 C5.2,80.4591727 6.14572074,81.4556154 7.34252788,81.5365389 L7.5,81.541845 L61.9191327,81.541845 C62.7227807,81.541845 63.4301604,81.1296719 63.8414095,80.5051883 L68.8055025,80.5047823 C68.2109196,83.7679576 65.3539299,86.241845 61.9191327,86.241845 L7.5,86.241845 C3.63400675,86.241845 0.5,83.1078383 0.5,79.241845 L0.5,7 C0.5,3.13400675 3.63400675,4.54747351e-13 7.5,4.54747351e-13 L38.999,0 Z" id="Combined-Shape" fill="#000000" fill-rule="nonzero"></path>
                    <path d="M21.8366217,12.1115277 C26.4274464,12.1115277 30.1491019,15.8331833 30.1491019,20.4240079 C30.1491019,25.0148325 26.4274464,28.7364881 21.8366217,28.7364881 C17.2457971,28.7364881 13.5241416,25.0148325 13.5241416,20.4240079 C13.5241416,15.8331833 17.2457971,12.1115277 21.8366217,12.1115277 Z M21.8366217,16.2093014 C19.5124965,16.2093014 17.6219152,18.0998827 17.6219152,20.4240079 C17.6219152,22.7481332 19.5124965,24.6387144 21.8366217,24.6387144 C24.160747,24.6387144 26.0513282,22.7481332 26.0513282,20.4240079 C26.0513282,18.0998827 24.160747,16.2093014 21.8366217,16.2093014 Z" id="Combined-Shape" fill="#000000"></path>
                    <path d="M38.9990966,34.6069031 L38.9990966,40.5269031 L32.5161897,47.0103702 L26.2365618,40.7307423 L15.7705152,51.1967888 L15.7705152,51.8097782 L38.9990966,51.8089031 L39,55.9961968 L13.1540036,55.9961968 C12.3351939,55.9961968 11.6627065,55.3691989 11.5905129,54.5691744 L11.5840966,54.4262898 L11.5840966,50.7631735 C11.5840966,50.1005152 11.9351703,49.2020661 12.3885137,48.6685325 L12.5038362,48.5430992 L24.0164874,37.030448 C25.1954361,35.8513765 27.0787384,35.8060276 28.3119817,36.8944013 L28.4567639,37.030448 L32.5161897,41.0897461 L38.9990966,34.6069031 Z" id="Combined-Shape" fill="#000000"></path>
                    <line x1="13.988497" y1="74.1710934" x2="36.7026084" y2="74.1710934" id="Line" stroke="#000000" stroke-width="4.2" stroke-linecap="round"></line>
                    <rect id="Rectangle" fill="#000000" x="2.4318564" y="62.180351" width="36.5681436" height="4.6" rx="1"></rect>
                </g>
                <g id="story-icon-copy" transform="translate(43.000000, 0.000000)">
                    <rect id="Rectangle" stroke="#000000" stroke-width="4.7" x="3.31646181" y="2.35" width="51.0128906" height="87.1147809" rx="7"></rect>
                    <path d="M28.8229071,29.255495 C35.383858,29.255495 40.6978788,34.5695158 40.6978788,41.1304666 C40.6978788,47.6914175 35.383858,53.0054383 28.8229071,53.0054383 C22.2619563,53.0054383 16.9479354,47.6914175 16.9479354,41.1304666 C16.9479354,34.5695158 22.2619563,29.255495 28.8229071,29.255495 Z M28.8229071,34.0054836 C24.8893228,34.0054836 21.6979241,37.1968823 21.6979241,41.1304666 C21.6979241,45.064051 24.8893228,48.2554497 28.8229071,48.2554497 C32.7564915,48.2554497 35.9478901,45.064051 35.9478901,41.1304666 C35.9478901,37.1968823 32.7564915,34.0054836 28.8229071,34.0054836 Z" id="Combined-Shape" fill="#000000" fill-rule="nonzero"></path>
                    <path d="M15.7604383,80.1826901 C16.4136197,80.1826901 16.9479354,79.6483743 16.9479354,78.9951929 L16.9479354,65.2545513 C16.9479354,63.1764312 18.2838698,60.3709112 21.8760777,60.3709112 C23.7166113,60.3709112 24.9635413,61.4099712 28.8229071,61.4099712 C32.6674872,61.4099712 33.9142722,60.3709112 35.7697366,60.3709112 C39.3767302,60.3709112 40.6978788,63.1764312 40.6978788,65.2545513 L40.6978788,78.9951929 C40.6978788,79.6483743 41.2321946,80.1826901 41.885376,80.1826901 L44.2603703,80.1826901 C44.9135517,80.1826901 45.4478675,79.6483743 45.4478675,78.9951929 L45.4478675,65.2545513 C45.4478675,63.191217 44.8244025,61.2763198 43.755626,59.6881583 C41.9595946,57.0162897 38.9018473,55.6209225 35.7697366,55.6209225 C32.8752122,55.6209225 32.1479572,56.6599825 28.8229071,56.6599825 C25.4978571,56.6599825 24.770602,55.6209225 21.8760777,55.6209225 C18.7291812,55.6209225 15.671434,57.0162897 13.8901882,59.6881583 C12.8214118,61.2763198 12.1979468,63.191217 12.1979468,65.2545513 L12.1979468,78.9951929 C12.1979468,79.6483743 12.7322625,80.1826901 13.3854439,80.1826901 L15.7604383,80.1826901 Z" id="Path" fill="#000000"></path>
                </g>
            </g>
        </g>
    </g>
</svg>