<?xml version="1.0" encoding="UTF-8"?>
<svg width="82px" height="89px" viewBox="0 0 82 89" version="1.1" xmlns="http://www.w3.org/2000/svg" xmlns:xlink="http://www.w3.org/1999/xlink">
    <!-- Generator: Sketch 61 (89581) - https://sketch.com -->
    <title>post-sug-icon</title>
    <desc>Created with Sketch.</desc>
    <g id="Page-1" stroke="none" stroke-width="1" fill="none" fill-rule="evenodd">
        <g id="RY-Post-Suggestion" transform="translate(-9.000000, -7.000000)">
            <g id="post-sug-icon" transform="translate(9.177093, 5.879077)">
                <path d="M7.59536806,15.1623288 C5.02724398,15.1623288 2.94536806,17.2442047 2.94536806,19.8123288 L2.94536806,82.7093121 C2.94536806,85.2774362 5.02724398,87.3593121 7.59536806,87.3593121 L74.0504462,87.3593121 C76.6185703,87.3593121 78.7004462,85.2774362 78.7004462,82.7093121 L78.7004462,19.8123288 C78.7004462,17.2442047 76.6185703,15.1623288 74.0504462,15.1623288 L53.6857643,15.1623288 C52.4823826,15.1623288 51.3327653,14.663825 50.5103054,13.7853677 L42.0260256,4.72343404 C42.0014571,4.69719279 41.9760377,4.67176144 41.9498079,4.64718069 C41.2848804,4.02405622 40.2407079,4.05794428 39.6175834,4.7228718 L31.1234446,13.78685 C30.3010575,14.6644079 29.1520497,15.1623288 27.9493741,15.1623288 L7.59536806,15.1623288 Z" id="Rectangle" stroke="#000000" stroke-width="4.7"></path>
                <path d="M40.8229071,27.1209225 C47.383858,27.1209225 52.6978788,32.4349433 52.6978788,38.9958942 C52.6978788,45.556845 47.383858,50.8708659 40.8229071,50.8708659 C34.2619563,50.8708659 28.9479354,45.556845 28.9479354,38.9958942 C28.9479354,32.4349433 34.2619563,27.1209225 40.8229071,27.1209225 Z M40.8229071,31.8709112 C36.8893228,31.8709112 33.6979241,35.0623098 33.6979241,38.9958942 C33.6979241,42.9294786 36.8893228,46.1208772 40.8229071,46.1208772 C44.7564915,46.1208772 47.9478901,42.9294786 47.9478901,38.9958942 C47.9478901,35.0623098 44.7564915,31.8709112 40.8229071,31.8709112 Z" id="Combined-Shape" fill="#000000" fill-rule="nonzero"></path>
                <path d="M27.7604383,78.0481176 C28.4136197,78.0481176 28.9479354,77.5138019 28.9479354,76.8606205 L28.9479354,63.1199788 C28.9479354,61.0418588 30.2838698,58.2363387 33.8760777,58.2363387 C35.7166113,58.2363387 36.9635413,59.2753988 40.8229071,59.2753988 C44.6674872,59.2753988 45.9142722,58.2363387 47.7697366,58.2363387 C51.3767302,58.2363387 52.6978788,61.0418588 52.6978788,63.1199788 L52.6978788,76.8606205 C52.6978788,77.5138019 53.2321946,78.0481176 53.885376,78.0481176 L56.2603703,78.0481176 C56.9135517,78.0481176 57.4478675,77.5138019 57.4478675,76.8606205 L57.4478675,63.1199788 C57.4478675,61.0566445 56.8244025,59.1417473 55.755626,57.5535858 C53.9595946,54.8817172 50.9018473,53.4863501 47.7697366,53.4863501 C44.8752122,53.4863501 44.1479572,54.5254101 40.8229071,54.5254101 C37.4978571,54.5254101 36.770602,53.4863501 33.8760777,53.4863501 C30.7291812,53.4863501 27.671434,54.8817172 25.8901882,57.5535858 C24.8214118,59.1417473 24.1979468,61.0566445 24.1979468,63.1199788 L24.1979468,76.8606205 C24.1979468,77.5138019 24.7322625,78.0481176 25.3854439,78.0481176 L27.7604383,78.0481176 Z" id="Path" fill="#000000"></path>
            </g>
        </g>
    </g>
</svg>