<?xml version="1.0" encoding="UTF-8"?>
<svg width="100px" height="80px" viewBox="0 0 100 80" version="1.1" xmlns="http://www.w3.org/2000/svg" xmlns:xlink="http://www.w3.org/1999/xlink">
    <!-- Generator: Sketch 57.1 (83088) - https://sketch.com -->
    <title>request - inactive</title>
    <desc>Created with Sketch.</desc>
    <g id="Page-1" stroke="none" stroke-width="1" fill="none" fill-rule="evenodd">
        <g id="Requests-Active" transform="translate(0.000000, -10.000000)" fill="#262626">
            <g id="request---inactive" transform="translate(0.000000, 10.000000)">
                <path d="M15,19.5121951 C15,30.2897561 23.953,39.0253659 35,39.0253659 L35,39.0253659 C46.047,39.0253659 55,30.2897561 55,19.5121951 L55,19.5121951 C55,8.73463415 46.047,0 35,0 L35,0 C23.953,0 15,8.73463415 15,19.5121951 L15,19.5121951 Z" id="Clip-2"></path>
                <path d="M20.6760484,44 C25.1034677,44 27.2099355,46.5 34.4512258,46.5 C41.284969,46.5 43.5583915,44.272881 47.5016062,44.0227632 L47.3102543,44.0362059 C46.5792964,45.7677678 46.0089186,47.5836827 45.6177801,49.4652915 C43.1754626,50.1882748 40.0477743,51.5 34.4354839,51.5 C26.6717581,51.5 23.6748871,49 20.6612903,49 C11.9756774,49 4.91935484,56.172 4.91935484,65 L4.91935484,65 L4.91935484,71.5 C4.91935484,72.875 6.02620968,74 7.37903226,74 L7.37903226,74 L51.5206228,74.0002323 C53.0260188,75.8677377 54.754411,77.5479503 56.6653456,79.0004162 L7.37903226,79 C3.30482258,79 0,75.64 0,71.5 L0,71.5 L0,65 C0,53.406 9.25429032,44 20.6760484,44 Z" id="Combined-Shape"></path>
                <path d="M20.6760484,44 C25.1034677,44 27.2099355,46.5 34.4512258,46.5 C41.284969,46.5 43.5583915,44.272881 47.5016062,44.0227632 L47.3102543,44.0362059 C45.8225253,47.5604784 45,51.4341836 45,55.5 C45,65.0907324 49.5767513,73.6125072 56.6653456,79.0004162 L7.37903226,79 C3.30482258,79 0,75.64 0,71.5 L0,71.5 L0,65 C0,53.406 9.25429032,44 20.6760484,44 Z" id="Combined-Shape"></path>
                <path d="M73,46.5 L73,57.485 C73,58.313 73.688,59 74.516,59 L74.516,59 L83,59 C84.381,59 85.5,57.881 85.5,56.5 L85.5,56.5 C85.5,55.119 84.381,54 83,54 L83,54 L78,54 L78,46.5 C78,45.12 76.881,44 75.5,44 L75.5,44 C74.119,44 73,45.12 73,46.5 L73,46.5 Z" id="Clip-8"></path>
                <path d="M75.1299739,79.0386 C61.8365755,79.0386 51.0207,68.4958222 51.0207,55.5380782 C51.0207,42.5803342 61.8365755,32.0386 75.1299739,32.0386 C76.6085647,32.0386 77.8066408,33.206425 77.8066408,34.6476818 C77.8066408,36.0889386 76.6085647,37.2567637 75.1299739,37.2567637 C64.7884037,37.2567637 56.3740338,45.4576296 56.3740338,55.5380782 C56.3740338,65.6195704 64.7884037,73.8204363 75.1299739,73.8204363 C80.1674609,73.8204363 84.8955253,71.9001521 88.4447856,68.4144188 C89.484403,67.3916587 91.1803391,67.3853969 92.2295926,68.4008516 C93.278846,69.4152626 93.28527,71.0673332 92.2435112,72.0900933 C87.6835415,76.5714522 81.6053664,79.0386 75.1299739,79.0386" id="Fill-10"></path>
                <path d="M95.679034,64.0386 C95.4528192,64.0386 95.2245,64.0077975 94.9972331,63.9439922 C93.5936492,63.5512597 92.760337,62.0441351 93.1359588,60.5766138 C93.5505105,58.9605802 93.7598908,57.2807413 93.7598908,55.5855011 C93.7598908,53.8638588 93.5431454,52.1554176 93.1138634,50.5107816 C92.7319286,49.0454604 93.5589278,47.5339355 94.9614596,47.1357026 C96.361887,46.7374696 97.8086095,47.5999409 98.1905443,49.0674623 C98.7408249,51.1818371 99.0207,53.3754184 99.0207,55.5855011 C99.0207,57.761481 98.7502944,59.9187594 98.2179005,61.9990314 C97.9033041,63.227833 96.8406206,64.0386 95.679034,64.0386" id="Fill-12"></path>
                <path d="M90.2749623,43.0386 C89.5775229,43.0386 88.8800835,42.8023665 88.3451969,42.3279308 C87.1611975,41.2806287 85.8333168,40.3730982 84.3967015,39.6328998 C83.0830991,38.9556969 82.6305873,37.4506924 83.3873365,36.2724776 C84.1429873,35.0932785 85.8212352,34.6897129 87.1370342,35.3669157 C88.9800315,36.3177557 90.6857376,37.4821902 92.2047276,38.8277371 C93.2832874,39.7825143 93.2942707,41.3406714 92.2277926,42.3072603 C91.6907093,42.794492 90.983385,43.0386 90.2749623,43.0386" id="Fill-14"></path>
            </g>
        </g>
    </g>
</svg>