<?xml version="1.0" encoding="UTF-8"?>
<svg width="98px" height="97px" viewBox="0 0 98 97" version="1.1" xmlns="http://www.w3.org/2000/svg" xmlns:xlink="http://www.w3.org/1999/xlink">
    <!-- Generator: Sketch 57.1 (83088) - https://sketch.com -->
    <title>Group 10</title>
    <desc>Created with Sketch.</desc>
    <g id="Page-1" stroke="none" stroke-width="1" fill="none" fill-rule="evenodd">
        <g id="RYDR-Logo" transform="translate(-1.000000, -1.000000)" fill="#262626">
            <g id="Group-10" transform="translate(1.500000, 0.541504)">
                <path d="M48.3514374,0.705035971 C75.0553799,0.705035971 96.7028043,22.3524604 96.7028043,49.0564029 C96.7028043,75.7603453 75.0553799,97.4077698 48.3514374,97.4077698 C21.647495,97.4077698 7.05035971e-05,75.7603453 7.05035971e-05,49.0564029 C7.05035971e-05,22.3524604 21.647495,0.705035971 48.3514374,0.705035971 Z M48.3514374,4.10330935 C23.5644878,4.10330935 3.39834388,24.2694532 3.39834388,49.0564029 C3.39834388,73.8433525 23.5644878,94.0094964 48.3514374,94.0094964 C73.1383871,94.0094964 93.3045309,73.8433525 93.3045309,49.0564029 C93.3045309,24.2694532 73.1383871,4.10330935 48.3514374,4.10330935 Z" id="Combined-Shape"></path>
                <path d="M21.1373309,53.076659 L20.2807122,53.2218964 L20.2807122,49.705882 L21.0893885,49.5606446 C22.2837194,49.353364 22.7053309,49.6501842 22.7053309,50.8875223 C22.7053309,52.1227453 22.1109856,52.8968748 21.1373309,53.076659 L21.1373309,53.076659 Z M26.7670432,56.4685871 C26.6965396,56.389623 26.6965396,56.2704719 26.7670432,56.1922129 C28.4605396,54.5953065 29.409518,52.3638676 29.3848417,50.0372489 C29.4786115,48.0751338 28.6875612,46.1736518 27.2302518,44.8566446 C25.7031439,43.5650187 23.5415036,43.1300115 21.0132446,43.5784144 L14.6996475,44.6909612 C14.0749856,44.8044719 13.6216467,45.3480547 13.6216467,45.9825871 L13.6216467,63.0994504 C13.6209424,63.6754647 14.0869712,64.1429036 14.6629856,64.1443137 C14.7243237,64.1443137 14.7849568,64.1386734 14.8448849,64.1288029 L19.2168129,63.3546734 C19.8400647,63.2446878 20.2941079,62.7025151 20.2948129,62.0700978 L20.2948129,59.0172921 L20.4745971,59.0172921 L22.4846547,61.9805583 C22.804741,62.4437669 23.3659496,62.6785439 23.921518,62.5812489 L28.6593597,61.7457813 C29.2290288,61.6555367 29.6175036,61.1218245 29.527259,60.5528604 C29.5025827,60.3956374 29.4419496,60.2454647 29.350295,60.1150331 L26.7670432,56.4685871 Z" id="Fill-4"></path>
                <path d="M74.7056115,43.6202935 L73.8560432,43.7655309 L73.8560432,40.2495165 L74.6640144,40.1042791 C75.852,39.8969986 76.2736115,40.2008691 76.2736115,41.4375022 C76.2736115,42.6741353 75.7067626,43.4475597 74.7056115,43.6202935 L74.7056115,43.6202935 Z M80.3487194,47.0122216 C80.2782158,46.9332576 80.2782158,46.8141065 80.3487194,46.7351424 C82.0295252,45.138236 82.9679281,42.9131424 82.9397266,40.5942791 C83.0236259,38.6335741 82.2346906,36.7363223 80.7837266,35.4136748 C79.2502734,34.1290993 77.0956835,33.6940921 74.5674245,34.1361496 L68.246777,35.2479914 C67.6228201,35.3615022 67.169482,35.9057899 67.169482,36.5403223 L67.169482,53.6430849 C67.1715971,54.2233295 67.6446763,54.6907683 68.2249209,54.6879609 C68.2834388,54.6872432 68.3412518,54.6823079 68.3990647,54.6717324 L72.7646475,53.9053583 C73.3886043,53.7918475 73.8419424,53.2482647 73.8419424,52.6137324 L73.8419424,49.5397755 L74.0146763,49.5397755 L76.0317842,52.4959914 C76.3476403,52.9620201 76.9081439,53.1967971 77.4615971,53.0973871 L82.2001439,52.2612144 C82.7691079,52.1716748 83.1575827,51.6379626 83.0673381,51.0689986 C83.0426619,50.9110705 82.9820288,50.7616029 82.8903741,50.6311712 L80.3487194,47.0122216 Z" id="Fill-6"></path>
                <path d="M55.3990475,51.2597108 L55.0465295,51.3154086 L55.0465295,43.5924446 L55.7367597,43.4747036 C58.0922849,43.0671928 59.2464288,44.2417827 59.2464288,46.3900273 C59.2464288,48.9457827 58.0443424,50.8042576 55.3990475,51.2597108 M63.5838101,39.0541281 C61.6773928,37.5481712 58.9630043,36.9820273 55.9306446,37.465682 L41.6529612,39.9452935 C41.1960978,40.0284878 40.807623,40.326718 40.6095079,40.7462144 L38.0678532,46.2243439 C38.0142705,46.325164 37.8887741,46.363941 37.787954,46.3103583 C37.7512921,46.2906173 37.7209755,46.2610058 37.7012345,46.2243439 L35.3668604,42.0385453 C35.0622849,41.5154086 34.4630043,41.2390345 33.867954,41.3476101 L29.0328173,42.2112791 C28.4680835,42.3043439 28.085954,42.8380561 28.1797237,43.4020849 C28.1994647,43.522646 28.2403568,43.6382719 28.3002849,43.7447324 L34.4481986,54.7968763 C34.5109468,54.9139122 34.5440835,55.0436388 34.5447885,55.1768906 L34.5447885,59.4247324 C34.5476086,60.0162576 35.0284432,60.4935669 35.6199683,60.4914588 C35.6813065,60.4907468 35.7419396,60.4851065 35.8025727,60.4745309 L40.2506446,59.6940561 C40.8774216,59.5833655 41.3349899,59.0390777 41.3349899,58.4024302 L41.3349899,53.9057108 C41.3364,53.792905 41.3624863,53.6829194 41.4111338,53.5806892 L47.4970043,40.366905 C47.549882,40.248459 47.6887741,40.1955813 47.8072201,40.248459 C47.8939396,40.287236 47.9489324,40.3753655 47.9454072,40.4705453 L47.9454072,56.9444158 C47.9482273,57.5479266 48.4389324,58.0336964 49.0417381,58.0308763 C49.1023712,58.0308763 49.1637094,58.025941 49.2236374,58.0153655 L56.2902129,56.8062288 C62.3337813,55.7775813 66.3961986,51.1151784 66.4025439,45.4854662 C66.4025439,42.7428763 65.4288892,40.5114374 63.5838101,39.0541281" id="Fill-8"></path>
            </g>
        </g>
    </g>
</svg>