<?xml version="1.0" encoding="UTF-8"?>
<svg width="99px" height="42px" viewBox="0 0 99 42" version="1.1" xmlns="http://www.w3.org/2000/svg" xmlns:xlink="http://www.w3.org/1999/xlink">
    <!-- Generator: Sketch 57.1 (83088) - https://sketch.com -->
    <title>Asset 1 Copy</title>
    <desc>Created with Sketch.</desc>
    <g id="Symbols" stroke="none" stroke-width="1" fill="none" fill-rule="evenodd">
        <g id="Pixel-3" transform="translate(-131.000000, -275.000000)" fill="#FAFAFA" fill-rule="nonzero">
            <g id="Asset-1-Copy" transform="translate(130.710526, 275.000000)">
                <path d="M19.3418456,31.2534512 C19.2495559,31.1340312 19.2665548,30.9662002 19.381048,30.8664031 C21.8124046,28.6333114 23.170798,25.5194731 23.1287985,22.2754537 C23.2512851,19.5279289 22.101447,16.8706814 19.9926056,15.0277887 C17.7894301,13.2215644 14.6610777,12.6144301 10.9682105,13.2367427 L1.85757016,14.7925242 C0.951635366,14.9470574 0.290718777,15.7083394 0.289473684,16.5987486 L0.289473684,40.542605 C0.289473684,40.9742547 0.487035115,41.3837236 0.829121327,41.660635 C1.17120754,41.9375465 1.6225273,42.0533977 2.0614227,41.9769597 L8.38085139,40.8992964 C9.28727264,40.7509951 9.95031436,39.9904742 9.94894783,39.1006612 L9.94894783,34.7975973 L10.1998433,34.7520623 L13.1165027,38.8957534 C13.5728439,39.5490074 14.3848944,39.8794941 15.18639,39.7381522 L22.0468119,38.5694188 C22.5532085,38.4803429 22.9781081,38.1482275 23.1747141,37.6878136 C23.3713202,37.2273997 23.312672,36.7018241 23.0190317,36.2926654 L19.3418456,31.2534512 Z M11.1799035,26.510215 L9.94110735,26.7151228 L9.94110735,21.7745679 L11.1171797,21.5772493 C12.8342453,21.2812714 13.4693244,21.7062653 13.4693244,23.4365979 C13.4693244,25.1669305 12.6068713,26.2673613 11.1799035,26.510215 Z" id="Shape"></path>
                <path d="M95.3827274,18.2534512 C95.2993095,18.1304358 95.3191727,17.9673606 95.4298712,17.8664031 C97.8788342,15.6391377 99.2519976,12.5242474 99.2170919,9.27545369 C99.3398413,6.52792893 98.1875362,3.87068137 96.0741702,2.02778873 C93.8426958,0.221564373 90.7154886,-0.385569864 87.006841,0.236742729 L77.8609388,1.80011339 C76.9525728,1.94841472 76.2881084,2.70893565 76.2894758,3.59874857 L76.2894758,27.542605 C76.2894758,27.9742547 76.4874632,28.3837236 76.8302834,28.660635 C77.1731035,28.9375465 77.6253916,29.0533977 78.0652287,28.9769597 L84.3510721,27.8992964 C85.2594382,27.7509951 85.9239025,26.9904742 85.922533,26.1006612 L85.922533,21.7975973 L86.1739667,21.7520623 L89.0968839,25.8957534 C89.5568644,26.545868 90.3684587,26.875462 91.1712123,26.7381522 L98.0384963,25.5694188 C98.5483821,25.4840598 98.9773883,25.1522318 99.1750629,24.6903066 C99.3727376,24.2283814 99.3114909,23.7008305 99.012802,23.2926654 L95.3827274,18.2534512 Z M87.2111309,13.510215 L85.9696768,13.7151228 L85.9696768,8.7897463 L87.1404152,8.59242767 C88.8690221,8.29644973 89.4976065,8.72144369 89.4976065,10.4517763 C89.4976065,12.1821088 88.6411603,13.2673613 87.2111309,13.510215 Z" id="Shape"></path>
                <path d="M71.3399083,6.52120736 C68.6463015,4.38135454 64.8125031,3.5238684 60.5425241,4.25775294 L40.3940388,7.77267363 C39.7457282,7.88604264 39.1937821,8.31332369 38.9171464,8.91598849 L35.3358737,16.7337901 C35.2842358,16.8326798 35.1826043,16.8945762 35.0718696,16.8945762 C34.9611349,16.8945762 34.8595035,16.8326798 34.8078656,16.7337901 L31.5173799,10.7468373 C31.100099,9.98779545 30.2525871,9.57860712 29.4053473,9.72712403 L22.5182843,10.955415 C22.0398759,11.0377103 21.6320468,11.3520232 21.4273207,11.796218 C21.2225946,12.2404128 21.2471012,12.7577958 21.4928772,13.1802439 L30.1705765,28.8930982 C30.2579861,29.057126 30.3052168,29.2398995 30.3083178,29.4261301 L30.3083178,35.4826088 C30.3162356,35.9293473 30.5153426,36.3507498 30.8542715,36.6380997 C31.1932005,36.9254496 31.6387586,37.0506053 32.0759973,36.9812783 L38.3585291,35.8611387 C39.2431941,35.7101813 39.8903213,34.9360394 39.8889875,34.0302899 L39.8889875,27.6802574 C39.8880221,27.5202546 39.921987,27.3620019 39.9884673,27.2167514 L48.6355575,8.43703226 C48.6942764,8.28488557 48.8538236,8.19838267 49.0118965,8.23298971 C49.1699695,8.26759676 49.2796871,8.41305004 49.2706977,8.57608407 L49.2706977,32.0294889 C49.2636369,32.4907115 49.4610845,32.9309948 49.8090548,33.2299575 C50.1570251,33.5289201 50.6191171,33.6552877 51.0689864,33.574509 L61.0169662,31.8518116 C69.5416197,30.3763174 75.2808388,23.7404562 75.2889904,15.721802 C75.3191002,11.7742756 73.9416877,8.59925937 71.3399083,6.52120736 Z M59.7849472,23.9104084 L59.2875482,23.9953845 L59.2875482,12.9871164 L60.2670416,12.8171642 C63.5881364,12.2377817 65.2257269,13.9141285 65.2257269,16.9732682 C65.2257269,20.6117905 63.5345703,23.2615 59.7849472,23.9104084 Z" id="Shape"></path>
            </g>
        </g>
    </g>
</svg>