<?xml version="1.0" encoding="UTF-8"?>
<svg width="23px" height="29px" viewBox="0 0 23 29" version="1.1" xmlns="http://www.w3.org/2000/svg" xmlns:xlink="http://www.w3.org/1999/xlink">
    <!-- Generator: Sketch 58 (84663) - https://sketch.com -->
    <title>Shape</title>
    <desc>Created with Sketch.</desc>
    <g id="Page-1" stroke="none" stroke-width="1" fill="none" fill-rule="evenodd">
        <g id="rydr-logo" transform="translate(0.000000, -13.000000)" fill="#FAFAFA" fill-rule="nonzero">
            <path d="M19.0523716,31.2534512 C18.9600819,31.1340312 18.9770808,30.9662002 19.091574,30.8664031 C21.5229306,28.6333114 22.881324,25.5194731 22.8393245,22.2754537 C22.9618111,19.5279289 21.811973,16.8706814 19.7031316,15.0277887 C17.4999561,13.2215644 14.3716037,12.6144301 10.6787365,13.2367427 L1.56809616,14.7925242 C0.662161366,14.9470574 0.001244777,15.7083394 -3.16000012e-07,16.5987486 L-3.16000012e-07,40.542605 C-3.16000012e-07,40.9742547 0.197561115,41.3837236 0.539647327,41.660635 C0.88173354,41.9375465 1.3330533,42.0533977 1.7719487,41.9769597 L8.09137739,40.8992964 C8.99779864,40.7509951 9.66084036,39.9904742 9.65947383,39.1006612 L9.65947383,34.7975973 L9.9103693,34.7520623 L12.8270287,38.8957534 C13.2833699,39.5490074 14.0954204,39.8794941 14.896916,39.7381522 L21.7573379,38.5694188 C22.2637345,38.4803429 22.6886341,38.1482275 22.8852401,37.6878136 C23.0818462,37.2273997 23.023198,36.7018241 22.7295577,36.2926654 L19.0523716,31.2534512 Z M10.8904295,26.510215 L9.65163335,26.7151228 L9.65163335,21.7745679 L10.8277057,21.5772493 C12.5447713,21.2812714 13.1798504,21.7062653 13.1798504,23.4365979 C13.1798504,25.1669305 12.3173973,26.2673613 10.8904295,26.510215 Z" id="Shape"></path>
        </g>
    </g>
</svg>