<?xml version="1.0" encoding="UTF-8"?>
<svg width="56px" height="93px" viewBox="0 0 56 93" version="1.1" xmlns="http://www.w3.org/2000/svg" xmlns:xlink="http://www.w3.org/1999/xlink">
    <!-- Generator: Sketch 61 (89581) - https://sketch.com -->
    <title>story-icon</title>
    <desc>Created with Sketch.</desc>
    <g id="Page-1" stroke="none" stroke-width="1" fill="none" fill-rule="evenodd">
        <g id="RY-Story" transform="translate(-22.000000, -3.000000)">
            <g id="story-icon" transform="translate(21.177093, 3.879077)">
                <rect id="Rectangle" stroke="#000000" stroke-width="4.7" x="3.31646181" y="2.35" width="51.0128906" height="87.1147809" rx="7"></rect>
                <path d="M28.8229071,29.255495 C35.383858,29.255495 40.6978788,34.5695158 40.6978788,41.1304666 C40.6978788,47.6914175 35.383858,53.0054383 28.8229071,53.0054383 C22.2619563,53.0054383 16.9479354,47.6914175 16.9479354,41.1304666 C16.9479354,34.5695158 22.2619563,29.255495 28.8229071,29.255495 Z M28.8229071,34.0054836 C24.8893228,34.0054836 21.6979241,37.1968823 21.6979241,41.1304666 C21.6979241,45.064051 24.8893228,48.2554497 28.8229071,48.2554497 C32.7564915,48.2554497 35.9478901,45.064051 35.9478901,41.1304666 C35.9478901,37.1968823 32.7564915,34.0054836 28.8229071,34.0054836 Z" id="Combined-Shape" fill="#000000" fill-rule="nonzero"></path>
                <path d="M15.7604383,80.1826901 C16.4136197,80.1826901 16.9479354,79.6483743 16.9479354,78.9951929 L16.9479354,65.2545513 C16.9479354,63.1764312 18.2838698,60.3709112 21.8760777,60.3709112 C23.7166113,60.3709112 24.9635413,61.4099712 28.8229071,61.4099712 C32.6674872,61.4099712 33.9142722,60.3709112 35.7697366,60.3709112 C39.3767302,60.3709112 40.6978788,63.1764312 40.6978788,65.2545513 L40.6978788,78.9951929 C40.6978788,79.6483743 41.2321946,80.1826901 41.885376,80.1826901 L44.2603703,80.1826901 C44.9135517,80.1826901 45.4478675,79.6483743 45.4478675,78.9951929 L45.4478675,65.2545513 C45.4478675,63.191217 44.8244025,61.2763198 43.755626,59.6881583 C41.9595946,57.0162897 38.9018473,55.6209225 35.7697366,55.6209225 C32.8752122,55.6209225 32.1479572,56.6599825 28.8229071,56.6599825 C25.4978571,56.6599825 24.770602,55.6209225 21.8760777,55.6209225 C18.7291812,55.6209225 15.671434,57.0162897 13.8901882,59.6881583 C12.8214118,61.2763198 12.1979468,63.191217 12.1979468,65.2545513 L12.1979468,78.9951929 C12.1979468,79.6483743 12.7322625,80.1826901 13.3854439,80.1826901 L15.7604383,80.1826901 Z" id="Path" fill="#000000"></path>
            </g>
        </g>
    </g>
</svg>