<?xml version="1.0" encoding="UTF-8"?>
<svg width="365px" height="252px" viewBox="0 0 365 252" version="1.1" xmlns="http://www.w3.org/2000/svg" xmlns:xlink="http://www.w3.org/1999/xlink">
    <!-- Generator: Sketch 57.1 (83088) - https://sketch.com -->
    <title>Group 2</title>
    <desc>Created with Sketch.</desc>
    <defs>
        <linearGradient x1="50%" y1="16.2680965%" x2="50%" y2="100%" id="linearGradient-1">
            <stop stop-color="#2196F3" offset="0%"></stop>
            <stop stop-color="#0085F2" offset="100%"></stop>
            <stop stop-color="#2196F3" offset="70.879962%"></stop>
        </linearGradient>
        <polygon id="path-2" points="0 0.513513514 113.207002 0.513513514 113.207002 150 0 150"></polygon>
        <linearGradient x1="50%" y1="16.2680965%" x2="50%" y2="100%" id="linearGradient-4">
            <stop stop-color="#2196F3" offset="0%"></stop>
            <stop stop-color="#0085F2" offset="100%"></stop>
            <stop stop-color="#2196F3" offset="70.879962%"></stop>
        </linearGradient>
    </defs>
    <g id="Page-1" stroke="none" stroke-width="1" fill="none" fill-rule="evenodd">
        <g id="Group-2" transform="translate(2.913025, 0.500000)">
            <path d="M179.958069,169.5 L247.822372,149.797398 C248.493557,149.602537 249.204085,149.586936 249.883176,149.752149 L326.944397,168.5 L358.838487,241.514893 C359.72279,243.53932 358.798537,245.897311 356.77411,246.781614 C355.999217,247.120099 355.13699,247.204309 354.311249,247.022149 L265.986837,227.537609 L179.586975,248.714653" id="Shape" stroke="#FFFFFF" stroke-width="4" fill="#090909" stroke-linecap="round" stroke-linejoin="round"></path>
            <path d="M0.37109375,169.5 L68.2353968,149.797398 C68.9065821,149.602537 69.6171095,149.586936 70.2962009,149.752149 L147.357422,168.5 L147.357422,168.5 L179.251512,241.514893 C180.135815,243.53932 179.211561,245.897311 177.187135,246.781614 C176.412242,247.120099 175.550015,247.204309 174.724273,247.022149 L86.3998615,227.537609 L86.3998615,227.537609 L0,248.714653" id="Shape" stroke="#FFFFFF" stroke-width="4" fill="#090909" stroke-linejoin="round" transform="translate(89.793488, 199.176718) scale(-1, 1) translate(-89.793488, -199.176718) "></path>
            <path d="M92.5869752,226 L108.586975,150" id="Line-2" stroke="#FFFFFF" stroke-width="4" stroke-linecap="square"></path>
            <path d="M249.086975,226 L265.086975,150" id="Line-2-Copy" stroke="#FFFFFF" stroke-width="4" stroke-linecap="square" transform="translate(257.086975, 188.000000) scale(-1, 1) translate(-257.086975, -188.000000) "></path>
            <path d="M179.586975,246 L179.586975,169" id="Line-3" stroke="#FFFFFF" stroke-width="4" stroke-linecap="square"></path>
            <ellipse id="Oval" stroke="#090909" stroke-width="4" fill="#2196F3" cx="179.586975" cy="199.107327" rx="20.9238281" ry="6.44882563"></ellipse>
            <g id="Group" transform="translate(122.744870, 0.000000)">
                <g id="Group-6">
                    <path d="M56.604362,147.169811 C56.3443458,147.169811 55.6895404,147.099415 55.2348523,146.454805 L13.2728563,86.7987174 C5.78275435,76.4614944 2.20923244,64.2277105 2.91849145,51.3852051 C4.42821938,24.072796 25.8448467,2.04011425 52.7381517,0.136651766 C54.0232582,0.0469309096 55.3247009,0 56.6057234,0 C86.2543839,0 110.377358,24.4592858 110.377358,54.5226744 C110.377358,66.2126119 106.775248,77.3628439 99.9603719,86.76697 L57.9738718,146.454805 C57.5191836,147.099415 56.8643783,147.169811 56.604362,147.169811" id="Fill-1" fill="url(#linearGradient-1)"></path>
                    <g id="Group-5">
                        <mask id="mask-3" fill="white">
                            <use xlink:href="#path-2"></use>
                        </mask>
                        <g id="Clip-4"></g>
                        <path d="M56.604592,0.513513514 C87.8635144,0.513513514 113.207002,25.622973 113.207002,56.5945946 C113.207002,69.0081081 109.130166,80.4716216 102.239509,89.7621622 L102.239509,89.7621622 L60.1958627,148.167568 C59.3161173,149.389189 57.9603546,150 56.603228,150 C55.2474653,150 53.8917027,149.389189 53.0105933,148.167568 L53.0105933,148.167568 L10.968311,89.7621622 C3.4857013,79.672973 -0.679790862,67.0189189 0.090838827,53.372973 C1.67301659,25.4175676 24.3486247,2.60405405 52.5400318,0.654054054 C53.9053421,0.560810811 55.2597409,0.513513514 56.604592,0.513513514 Z" id="Fill-3" fill="url(#linearGradient-4)" mask="url(#mask-3)"></path>
                    </g>
                </g>
                <g id="R-Icon" transform="translate(36.792453, 31.132075)" fill="#FFFFFF">
                    <g id="Combined-Shape">
                        <path d="M36.0157975,3.9789299 C39.6910633,7.21298815 41.7155696,12.2638522 41.7102532,18.2134348 C41.7075949,24.799425 39.3013671,30.681493 34.867443,35.0898619 C34.6643544,35.2918522 34.6282025,35.6106095 34.7898228,35.8491241 L41.4901519,45.7311532 C42.6571139,47.4516678 41.7070633,49.8500949 39.7149873,50.2158911 L27.1973924,52.5135998 C25.7337722,52.7819979 24.2547342,52.1328619 23.4184557,50.8550658 L18.0924304,42.7190076 L17.6346835,42.8036775 L17.6256456,51.258493 C17.6240506,53.0011435 16.4214684,54.4914445 14.7733671,54.7941532 L3.23825316,56.9109008 C1.54921519,57.2208037 -2.84217094e-14,55.8682988 -2.84217094e-14,54.0824833 L-2.84217094e-14,7.06578427 C-2.84217094e-14,5.32147359 1.20311392,3.82895903 2.85334177,3.52680369 L19.5273418,0.468172618 C26.2797722,-0.759817673 31.9816709,0.433861938 36.0157975,3.9789299 Z M19.7697722,16.8692309 L17.630962,17.2615901 L17.630962,26.9289008 C17.630962,26.9289008 18.7713418,26.7324445 19.8893924,26.5271338 C22.4981772,26.0478911 24.0234684,23.9189687 24.0234684,20.5227649 C24.0234684,17.1260076 22.9086076,16.2925901 19.7697722,16.8692309 Z"></path>
                    </g>
                </g>
            </g>
        </g>
    </g>
</svg>